<svg height="512pt" viewBox="0 0 512 512" width="512pt" xmlns="http://www.w3.org/2000/svg"><path d="m111.398438 391.5c-8.28125 0-15-6.714844-15-15v-56.234375c0-8.28125 6.71875-15 15-15 8.285156 0 15 6.71875 15 15v56.234375c0 8.285156-6.714844 15-15 15zm0 0" fill="#875140"/><path d="m111.398438 305.265625c-.003907 0-.007813.003906-.015626.003906v86.230469h.015626c8.285156 0 15-6.714844 15-15v-56.230469c0-8.289062-6.714844-15.003906-15-15.003906zm0 0" fill="#504541"/><path d="m111.414062 335.265625c-26.011718 0-47.148437-21.136719-47.148437-47.117187v-32.164063c0-25.980469 21.136719-47.117187 47.117187-47.117187 26.015626 0 47.148438 21.136718 47.148438 47.117187v32.164063c0 25.980468-21.136719 47.117187-47.117188 47.117187zm0 0" fill="#9adb05"/><path d="m111.683594 208.875c-.101563 0-.199219.003906-.300782.003906v126.386719h.03125c25.980469 0 47.117188-21.136719 47.117188-47.117187v-32.164063c0-25.878906-20.972656-46.949219-46.847656-47.109375zm0 0" fill="#00ca76"/><path d="m416.667969 351.332031c-8.285157 0-15-6.714843-15-15v-64.265625c0-8.285156 6.714843-15 15-15 8.28125 0 15 6.714844 15 15v64.265625c0 8.285157-6.71875 15-15 15zm0 0" fill="#875140"/><path d="m416.667969 257.066406c-.007813 0-.011719 0-.019531 0v94.265625c.007812 0 .011718.003907.019531.003907 8.28125 0 15-6.71875 15-15v-64.269532c0-8.285156-6.71875-15-15-15zm0 0" fill="#504541"/><path d="m416.683594 287.066406c-34.609375 0-63.214844-27.929687-63.214844-63.183594v-48.234374c0-34.894532 28.234375-63.183594 63.183594-63.183594 34.613281 0 63.214844 27.9375 63.214844 63.183594v48.234374c0 34.898438-28.234376 63.183594-63.183594 63.183594zm0 0" fill="#9adb05"/><path d="m416.683594 287.066406c34.949218 0 63.183594-28.285156 63.183594-63.183594v-48.234374c0-35.246094-28.601563-63.183594-63.214844-63.183594v174.601562zm0 0" fill="#00ca76"/><path d="m15 512c-8.285156 0-15-6.714844-15-15v-128.53125c0-8.285156 6.714844-15 15-15h17.644531c64.347657 0 128.785157 15.210938 186.339844 43.984375l6.433594 3.21875c69.480469 34.722656-68.609375 111.328125-210.417969 111.328125zm0 0" fill="#d0e95a"/><path d="m225.417969 400.671875-6.433594-3.21875c-33.949219-16.972656-70.292969-29.222656-107.601563-36.417969v139.886719c98.710938-22.5 167.246094-73.65625 114.035157-100.25zm0 0" fill="#9adb05"/><path d="m497 512h-482c-8.285156 0-15-6.714844-15-15s6.714844-15 15-15h14.925781c63.128907 0 130.863281-23.46875 183.335938-75.941406 49.800781-49.800782 121.75-84.726563 204.546875-84.726563h79.191406c8.285156 0 15 6.71875 15 15v160.667969c0 8.285156-6.714844 15-15 15zm0 0" fill="#00ca76"/><path d="m239.933594 142.46875h-112.46875c-25.988282 0-47.132813-21.144531-47.132813-47.132812 0-25.757813 20.804688-47.136719 47.132813-47.136719h1.503906c3.4375-27.140625 26.671875-48.199219 54.730469-48.199219 28.058593 0 51.292969 21.058594 54.730469 48.199219h1.503906c25.796875 0 47.132812 20.847656 47.132812 47.132812 0 25.992188-21.144531 47.136719-47.132812 47.136719zm0 0" fill="#ebf5ff"/><path d="m239.933594 142.46875c25.988281 0 47.132812-21.144531 47.132812-47.132812 0-26.289063-21.335937-47.136719-47.132812-47.136719h-1.503906c-3.4375-27.140625-26.671876-48.199219-54.730469-48.199219v142.46875zm0 0" fill="#cbdfee"/><path d="m497 321.332031h-79.191406c-.386719 0-.769532.015625-1.15625.015625v190.652344h80.347656c8.285156 0 15-6.714844 15-15v-160.667969c0-8.28125-6.714844-15-15-15zm0 0" fill="#00ca76"/></svg>