<svg height="512pt" viewBox="0 0 512 512" width="512pt" xmlns="http://www.w3.org/2000/svg"><path d="m469.101562 505.320312h-215.886718c-6.058594 0-11.519532-3.640624-13.847656-9.230468l-53.445313-128.28125c-1.542969-3.6875-1.542969-7.847656 0-11.539063l13.847656-33.230469 29.652344-71.179687c3.789063-9.078125 12.667969-15 22.507813-15h104.539062c4.921875 0 9.601562 1.480469 13.519531 4.101563 3.933594 2.609374 7.089844 6.359374 8.992188 10.898437l99.730469 239.371094c.019531.046875.035156.09375.054687.136719 2.707031 6.683593-2.457031 13.953124-9.664063 13.953124zm0 0" fill="#bb8272"/><path d="m478.710938 491.230469-99.730469-239.371094c-1.902344-4.539063-5.058594-8.289063-8.992188-10.898437-3.917969-2.621094-8.597656-4.101563-13.519531-4.101563h-52.269531v268.460937h164.902343c7.207032 0 12.371094-7.269531 9.664063-13.953124-.019531-.042969-.035156-.089844-.054687-.136719zm0 0" fill="#875140"/><path d="m378.980469 251.859375-35.429688 19.429687c-4.320312 2.359376-9.519531 2.460938-13.929687.261719l-25.421875-12.710937-25.429688 12.710937c-5.199219 2.597657-10.46875 1.628907-13.917969-.261719l-35.429687-19.429687 60.929687-146.230469c2.328126-5.589844 7.789063-9.230468 13.847657-9.230468 6.0625 0 11.519531 3.640624 13.851562 9.230468zm0 0" fill="#ebf5ff"/><path d="m269.851562 491.230469-70.082031-168.191407-34.359375-82.449218c-2.332031-5.589844-7.789062-9.230469-13.839844-9.230469-6.058593 0-11.519531 3.640625-13.851562 9.230469l-104.429688 250.640625c-.019531.046875-.035156.09375-.054687.136719-2.707031 6.683593 2.457031 13.953124 9.664063 13.953124h217.339843c7.210938 0 12.375-7.269531 9.667969-13.953124-.019531-.042969-.039062-.089844-.054688-.136719zm0 0" fill="#875140"/><path d="m260.238281 505.320312c7.210938 0 12.375-7.269531 9.667969-13.953124-.019531-.042969-.039062-.089844-.054688-.136719l-70.082031-168.191407-34.359375-82.449218c-2.332031-5.589844-7.789062-9.230469-13.839844-9.230469v273.960937zm0 0" fill="#504541"/><path d="m497 512h-482c-8.285156 0-15-6.714844-15-15s6.714844-15 15-15h482c8.285156 0 15 6.714844 15 15s-6.714844 15-15 15zm0 0" fill="#9adb05"/><path d="m497 482h-345.433594v30h345.433594c8.285156 0 15-6.714844 15-15s-6.714844-15-15-15zm0 0" fill="#00ca76"/><path d="m329.621094 271.550781c4.410156 2.199219 9.609375 2.097657 13.929687-.261719l35.429688-19.429687-60.929688-146.230469c-2.332031-5.589844-7.789062-9.230468-13.851562-9.230468v162.441406zm0 0" fill="#cbdfee"/><path d="m159.601562 142.46875h-112.46875c-25.988281 0-47.132812-21.144531-47.132812-47.136719 0-25.753906 20.800781-47.132812 47.132812-47.132812h1.503907c3.4375-27.140625 26.671875-48.199219 54.730469-48.199219 28.058593 0 51.292968 21.058594 54.730468 48.199219h1.503906c25.796876 0 47.132813 20.847656 47.132813 47.132812 0 25.992188-21.144531 47.136719-47.132813 47.136719zm0 0" fill="#ebf5ff"/><path d="m159.601562 142.46875c25.988282 0 47.132813-21.144531 47.132813-47.132812 0-26.289063-21.335937-47.136719-47.132813-47.136719h-1.503906c-3.4375-27.140625-26.671875-48.199219-54.730468-48.199219v142.46875zm0 0" fill="#cbdfee"/></svg>