<svg height="512pt" viewBox="0 -37 512 512" width="512pt" xmlns="http://www.w3.org/2000/svg"><path d="m487.933594 430.734375-168.640625-321.214844c-2.246094-4.28125-8.378907-4.28125-10.625 0l-32.097657 61.140625 29.761719 260.074219zm0 0" fill="#40c75b"/><path d="m377.941406 221.230469-27.574218 16.984375c-1.984376 1.222656-4.496094 1.1875-6.441407-.09375l-34.625-22.753906-32.730469-44.707032 32.097657-61.140625c2.246093-4.28125 8.378906-4.28125 10.625 0zm0 0" fill="#d9e7ec"/><path d="m421.667969 430.734375-193.484375-370.835937c-2.242188-4.300782-8.394532-4.300782-10.636719 0l-193.480469 370.835937zm0 0" fill="#65db55"/><path d="m296.335938 190.519531-36.859376 22.707031c-2.097656 1.292969-4.773437 1.171876-6.746093-.308593l-26.265625-19.699219c-2.132813-1.597656-5.066406-1.597656-7.199219 0l-26.265625 19.699219c-1.972656 1.480469-4.648438 1.601562-6.746094.308593l-36.859375-22.707031 68.152344-130.621093c2.242187-4.300782 8.394531-4.300782 10.640625 0zm0 0" fill="#f2f7fb"/><path d="m289.132812 379.535156c-4.144531 0-7.5 3.359375-7.5 7.5v43.699219c0 4.140625 3.355469 7.5 7.5 7.5 4.144532 0 7.5-3.359375 7.5-7.5v-43.699219c0-4.140625-3.359374-7.5-7.5-7.5zm0 0" fill="#c95b2a"/><path d="m156.597656 379.535156c-4.140625 0-7.5 3.359375-7.5 7.5v43.699219c0 4.140625 3.359375 7.5 7.5 7.5 4.144532 0 7.5-3.359375 7.5-7.5v-43.699219c0-4.140625-3.355468-7.5-7.5-7.5zm0 0" fill="#c95b2a"/><path d="m40.628906 57.984375v-16.566406c0-22.875 18.542969-41.417969 41.417969-41.417969 12.371094 0 23.46875 5.429688 31.054687 14.027344 5.3125-3.621094 11.734376-5.742188 18.648438-5.742188 18.296875 0 33.132812 14.832032 33.132812 33.132813v16.566406zm0 0" fill="#d9e7ec"/><path d="m131.75 8.28125c-3.484375 0-6.84375.542969-10 1.542969 13.410156 4.238281 19.132812 16.78125 19.132812 31.59375v16.566406h24v-16.566406c0-18.300781-14.832031-33.136719-33.132812-33.136719zm0 0" fill="#aad4ec"/><path d="m173.167969 50.484375h-140.820313c-4.144531 0-7.5 3.359375-7.5 7.5 0 4.144531 3.355469 7.5 7.5 7.5h140.820313c4.140625 0 7.5-3.355469 7.5-7.5 0-4.140625-3.359375-7.5-7.5-7.5zm0 0" fill="#aad4ec"/><path d="m363.683594 115.96875v-16.566406c0-22.875 18.542968-41.417969 41.417968-41.417969 12.371094 0 23.464844 5.429687 31.054688 14.027344 5.3125-3.621094 11.730469-5.742188 18.644531-5.742188 18.300781 0 33.136719 14.832031 33.136719 33.132813v16.566406zm0 0" fill="#d9e7ec"/><path d="m454.800781 66.269531c-3.496093 0-6.863281.542969-10.027343 1.546875 13.394531 4.253906 19.101562 16.785156 19.101562 31.585938v16.566406h24.0625v-16.566406c0-18.300782-14.835938-33.132813-33.136719-33.132813zm0 0" fill="#aad4ec"/><path d="m496.21875 108.46875h-140.820312c-4.140626 0-7.5 3.359375-7.5 7.5s3.359374 7.5 7.5 7.5h140.820312c4.144531 0 7.5-3.359375 7.5-7.5s-3.355469-7.5-7.5-7.5zm0 0" fill="#aad4ec"/><path d="m504.5 423.238281h-497c-4.144531 0-7.5 3.359375-7.5 7.5s3.355469 7.5 7.5 7.5h497c4.144531 0 7.5-3.359375 7.5-7.5s-3.355469-7.5-7.5-7.5zm0 0" fill="#333"/><g fill="#40c75b"><path d="m318.835938 348.46875-24.6875-55.542969c-1.929688-4.347656-8.101563-4.347656-10.035157 0l-24.683593 55.542969c-1.613282 3.628906 1.042968 7.71875 5.015624 7.71875h.011719c3.882813 0 6.539063 3.921875 5.097657 7.527344l-10.542969 26.355468c-1.445313 3.609376 1.210937 7.53125 5.097656 7.53125h50.046875c3.882812 0 6.539062-3.921874 5.097656-7.53125l-10.542968-26.355468c-1.445313-3.605469 1.210937-7.527344 5.097656-7.527344h.007812c3.976563 0 6.632813-4.089844 5.019532-7.71875zm0 0"/><path d="m186.300781 348.46875-24.6875-55.542969c-1.929687-4.347656-8.101562-4.347656-10.03125 0l-24.6875 55.542969c-1.613281 3.628906 1.046875 7.71875 5.019531 7.71875h.007813c3.886719 0 6.542969 3.921875 5.097656 7.527344l-10.542969 26.355468c-1.441406 3.609376 1.214844 7.53125 5.097657 7.53125h50.046875c3.886718 0 6.542968-3.921874 5.097656-7.53125l-10.542969-26.355468c-1.441406-3.605469 1.214844-7.527344 5.097657-7.527344h.011718c3.972656 0 6.628906-4.089844 5.015625-7.71875zm0 0"/></g></svg>