<svg width="580" height="400" xmlns="http://www.w3.org/2000/svg">
 <!-- Created with Method Draw - http://github.com/duopixel/Method-Draw/ -->

 <g>
  <title>background</title>
  <rect fill="none" id="canvas_background" height="402" width="582" y="-1" x="-1"/>
  <g display="none" overflow="visible" y="0" x="0" height="100%" width="100%" id="canvasGrid">
   <rect fill="url(#gridpattern)" stroke-width="0" y="0" x="0" height="100%" width="100%"/>
  </g>
 </g>
 <g>
  <title>Layer 1</title>
  <g stroke="null" id="svg_34">
   <polyline stroke="null" id="svg_5" fill="#4C5E66" points="6.313869476318359,360.13629150390625 118.27732849121094,102.48821258544922 244.4665985107422,385.9398498535156 104.72725677490234,399.828125 "/>
   <polygon stroke="null" id="svg_6" fill="#829399" points="125.21328735351562,192.29698181152344 140.99093627929688,192.29698181152344 139.7770538330078,259.04669189453125 157.981201171875,248.12403869628906 180.77317810058594,321.20330810546875 205.7925262451172,299.0664978027344 118.27732849121094,102.48821258544922 "/>
   <polyline stroke="null" id="svg_7" fill="#4C5E66" points="147.6138153076172,335.9237060546875 210.1796875,198.36245727539062 294.0428771972656,360.2293395996094 "/>
   <polygon stroke="null" id="svg_8" fill="#829399" points="210.1796875,198.36537170410156 210.77447509765625,277.2513427734375 226.55186462402344,277.2513427734375 241.36399841308594,377.2366943359375 294.0418701171875,360.22760009765625 "/>
   <path stroke="null" id="svg_9" fill="#8BC923" d="m-1.611335,399.828158l297.722536,0l0,-29.205883c0,-14.697143 -11.784463,-26.81538 -26.48742,-26.930515c-0.091294,0 -0.182006,-0.005815 -0.2733,-0.005815c-9.314878,0 -17.701117,3.871556 -23.720694,10.055113c-5.582879,-17.24581 -22.021582,-29.606529 -41.269461,-28.975613c-22.118691,0.728025 -40.037866,18.902474 -40.474565,41.02698c-0.005815,0.28493 0.005815,0.564045 0.005815,0.843741c-0.418672,-0.230851 -29.212279,-15.753127 -50.098795,5.127573c-4.897303,4.824035 -6.960427,10.176063 -7.26978,15.534487c-4.896722,-9.260218 -14.684931,-15.534487 -25.856504,-15.534487c-4.284413,0 -8.337394,0.922242 -12.008918,2.603328c-3.901793,-15.838025 -18.210501,-27.464322 -35.195223,-27.464322c-0.406461,0 -0.812922,0.005815 -1.213568,0.018026c-18.6472,0.61289 -33.344343,16.159588 -33.605431,34.813185l-0.254692,18.094203z"/>
   <g stroke="null" transform="matrix(0.5814893280534791,0,0,0.5814893280534791,-2027.467386728472,-1481.6006554202013) " id="svg_10">
    <path stroke="null" id="svg_11" fill="#7EB515" d="m3682.373409,3213.88052c-6.877,6.762 -10.509,14.151 -11.886,21.654l325.422,0l0,-23.616c0,-25.285 -20.266,-46.115 -45.551,-46.313c-0.157,-0.01 -0.313,-0.01 -0.47,-0.01c-16.019,0 -30.441,6.647 -40.793,17.281c-9.601,-29.658 -37.871,-50.915 -70.972,-49.819c-38.038,1.252 -68.854,32.507 -69.605,70.555c-0.01,0.49 0.01,0.96 0.01,1.451c-0.72,-0.397 -50.236,-27.102 -86.155,8.817z"/>
    <path stroke="null" id="svg_12" fill="#7EB515" d="m3484.285409,3235.53452l182.497,0c-9.069,-13.107 -24.284,-21.654 -41.377,-21.654c-7.368,0 -14.338,1.586 -20.652,4.477c-6.71,-27.237 -31.317,-47.231 -60.526,-47.231c-0.699,0 -1.398,0.01 -2.087,0.031c-32.068,1.054 -57.343,27.79 -57.792,59.869l-0.063,4.508z"/>
   </g>
   <g stroke="null" transform="matrix(0.5814893280534791,0,0,0.5814893280534791,-2027.467386728472,-1481.6006554202013) " id="svg_13">
    <polygon stroke="null" id="svg_14" fill="#BFC5D2" points="3617.839361190796,2890.441656112671 3628.901372909546,2964.460454940796 3675.861333847046,2904.977544784546 3727.986089706421,2942.525640487671 3769.593267440796,2902.796636581421 3690.084478378296,2724.192632675171 "/>
    <polygon stroke="null" id="svg_15" fill="#BFC5D2" points="3765.690435409546,3070.318609237671 3830.818365097046,3044.282476425171 3882.913579940796,3069.494634628296 3902.824224472046,3045.847417831421 3937.418462753296,3061.417486190796 3937.428228378296,3061.417486190796 3848.131353378296,2889.074468612671 "/>
   </g>
   <g stroke="null" transform="matrix(0.5814893280534791,0,0,0.5814893280534791,-2027.467386728472,-1481.6006554202013) " id="svg_16">
    <polygon stroke="null" id="svg_17" fill="#F1F5FE" points="3702.012212753296,2878.638433456421 3729.145513534546,2878.638433456421 3727.986089706421,2942.525640487671 3769.593267440796,2902.796636581421 3690.084478378296,2724.192632675171 "/>
    <polygon stroke="null" id="svg_18" fill="#F1F5FE" points="3848.131353378296,2889.074468612671 3849.154302597046,3024.736577987671 3876.286626815796,3024.736577987671 3882.913579940796,3069.494634628296 3902.824224472046,3045.847417831421 3937.418462753296,3061.417486190796 "/>
   </g>
   <g stroke="null" transform="matrix(0.5814893280534791,0,0,0.5814893280534791,-2027.467386728472,-1481.6006554202013) " id="svg_19"/>
   <g stroke="null" transform="matrix(0.5814893280534791,0,0,0.5814893280534791,-2027.467386728472,-1481.6006554202013) " id="svg_20"/>
   <g stroke="null" transform="matrix(0.5814893280534791,0,0,0.5814893280534791,-2027.467386728472,-1481.6006554202013) " id="svg_21"/>
   <g stroke="null" transform="matrix(0.5814893280534791,0,0,0.5814893280534791,-2027.467386728472,-1481.6006554202013) " id="svg_22"/>
   <g stroke="null" transform="matrix(0.5814893280534791,0,0,0.5814893280534791,-2027.467386728472,-1481.6006554202013) " id="svg_23"/>
   <g stroke="null" transform="matrix(0.5814893280534791,0,0,0.5814893280534791,-2027.467386728472,-1481.6006554202013) " id="svg_24"/>
   <g stroke="null" transform="matrix(0.5814893280534791,0,0,0.5814893280534791,-2027.467386728472,-1481.6006554202013) " id="svg_25"/>
   <g stroke="null" transform="matrix(0.5814893280534791,0,0,0.5814893280534791,-2027.467386728472,-1481.6006554202013) " id="svg_26"/>
   <g stroke="null" transform="matrix(0.5814893280534791,0,0,0.5814893280534791,-2027.467386728472,-1481.6006554202013) " id="svg_27"/>
   <g stroke="null" transform="matrix(0.5814893280534791,0,0,0.5814893280534791,-2027.467386728472,-1481.6006554202013) " id="svg_28"/>
   <g stroke="null" transform="matrix(0.5814893280534791,0,0,0.5814893280534791,-2027.467386728472,-1481.6006554202013) " id="svg_29"/>
   <g stroke="null" transform="matrix(0.5814893280534791,0,0,0.5814893280534791,-2027.467386728472,-1481.6006554202013) " id="svg_30"/>
   <g stroke="null" transform="matrix(0.5814893280534791,0,0,0.5814893280534791,-2027.467386728472,-1481.6006554202013) " id="svg_31"/>
   <g stroke="null" transform="matrix(0.5814893280534791,0,0,0.5814893280534791,-2027.467386728472,-1481.6006554202013) " id="svg_32"/>
   <g stroke="null" transform="matrix(0.5814893280534791,0,0,0.5814893280534791,-2027.467386728472,-1481.6006554202013) " id="svg_33"/>
  </g>
  <g stroke="null" id="svg_66">
   <path stroke="null" id="svg_43" fill="#8BCE34" d="m579.9554,396.638122l-113.276814,-203.195559c-1.120986,-2.010715 -4.156316,-2.018929 -5.289437,-0.014785l-114.870463,203.195559c-1.068982,1.891342 0.376744,4.179681 2.640674,4.179681l228.147277,0c2.256418,0 3.703299,-2.274649 2.648763,-4.164896z"/>
   <path stroke="null" id="svg_44" fill="#79B510" d="m577.305481,400.803018l-15.916849,0l-107.855632,-193.47108l7.857304,-13.90635c1.129076,-1.999763 4.16614,-1.99374 5.289437,0.016975l113.276814,203.192273c1.051647,1.892985 -0.392345,4.168181 -2.651075,4.168181z"/>
   <path stroke="null" id="svg_45" fill="#E7EBEC" d="m521.204165,291.255741l-24.748949,27.577788c-1.207083,1.304336 -3.355447,1.286814 -4.538261,-0.036688l-38.668247,-43.260488c-1.17588,-1.315288 -3.307487,-1.342119 -4.51977,-0.056948l-20.453954,21.690752c-1.253887,1.329525 -3.475057,1.247388 -4.616268,-0.170297l-12.228573,-15.198092l49.959583,-88.371798c1.133121,-2.004144 4.169029,-1.99593 5.290015,0.014785l54.524423,97.810988z"/>
   <path stroke="null" id="svg_46" fill="#CDD7D9" d="m521.20532,291.254099l-12.88383,14.357008l-54.330851,-98.087516c-0.088986,-0.163179 -0.196462,-0.315406 -0.314916,-0.450659l7.714581,-13.641321c1.135432,-2.005239 4.16614,-1.999763 5.289437,0.011499l54.525579,97.810988z"/>
   <path stroke="null" id="svg_47" fill="#8BCE34" d="m451.495001,396.638122l-80.130291,-143.737645c-1.120986,-2.010715 -4.156316,-2.018929 -5.289437,-0.014785l-81.257056,143.737645c-1.068982,1.891342 0.376744,4.179681 2.640674,4.179681l161.387347,0c2.256418,0 3.702722,-2.274649 2.648763,-4.164896z"/>
   <path stroke="null" id="svg_48" fill="#79B510" d="m448.843348,400.803018l-12.950858,0l-76.183148,-136.657431l6.365353,-11.258799c1.135432,-2.005239 4.172496,-1.99374 5.289437,0.016975l80.129713,143.732169c1.058003,1.89189 -0.391767,4.167086 -2.650497,4.167086z"/>
   <path stroke="null" id="svg_49" fill="#E7EBEC" d="m426.834459,352.408417l-16.246211,14.189449c-1.178191,1.029451 -3.002972,0.997144 -4.140137,-0.072281l-42.459376,-39.921891c-1.218639,-1.146086 -3.202323,-1.08859 -4.345266,0.125396l-15.952096,16.94323c-1.077071,1.144443 -2.918609,1.270934 -4.159206,0.286385l-17.217539,-13.665962l43.758911,-77.40705c1.133121,-2.004692 4.169029,-1.99593 5.290015,0.014785l55.470906,99.507939z"/>
   <path stroke="null" fill="#CDD7D9" d="m426.834459,352.410059l-12.053491,10.526684l-55.071626,-98.791156l6.365353,-11.258799c0.142724,-0.248054 0.314916,-0.467634 0.505022,-0.653263c0.095342,-0.095827 0.195884,-0.180154 0.302782,-0.259005c0.053738,-0.039426 0.106898,-0.073376 0.166414,-0.112802c0.112676,-0.067352 0.225931,-0.129229 0.344385,-0.18563c0.790469,-0.366331 1.723661,-0.382759 2.526264,-0.050377c0.083207,0.03395 0.160636,0.067352 0.237487,0.112802c0.487109,0.247506 0.915279,0.636288 1.206505,1.165799l55.470906,99.505749z" id="svg_41"/>
   <g stroke="null" transform="matrix(0.5778279513720138,0,0,0.5475803231707417,-2064.4665425105154,-1405.8065887617686) " id="svg_50">
    <path stroke="null" fill="#CDD7D9" d="m4311.492794,3210.883652l-20.86,19.224l-95.308,-180.414l11.016,-20.561c0.247,-0.453 0.545,-0.854 0.874,-1.193c0.165,-0.175 0.339,-0.329 0.524,-0.473c0.093,-0.072 0.185,-0.134 0.288,-0.206c0.195,-0.123 0.391,-0.236 0.596,-0.339c1.368,-0.669 2.983,-0.699 4.372,-0.092c0.144,0.062 0.278,0.123 0.411,0.206c0.843,0.452 1.584,1.162 2.088,2.129l95.999,181.719z" id="svg_40"/>
   </g>
   <g stroke="null" transform="matrix(0.5778279513720138,0,0,0.5475803231707417,-2064.4665425105154,-1405.8065887617686) " id="svg_51"/>
   <g stroke="null" transform="matrix(0.5778279513720138,0,0,0.5475803231707417,-2064.4665425105154,-1405.8065887617686) " id="svg_52"/>
   <g stroke="null" transform="matrix(0.5778279513720138,0,0,0.5475803231707417,-2064.4665425105154,-1405.8065887617686) " id="svg_53"/>
   <g stroke="null" transform="matrix(0.5778279513720138,0,0,0.5475803231707417,-2064.4665425105154,-1405.8065887617686) " id="svg_54"/>
   <g stroke="null" transform="matrix(0.5778279513720138,0,0,0.5475803231707417,-2064.4665425105154,-1405.8065887617686) " id="svg_55"/>
   <g stroke="null" transform="matrix(0.5778279513720138,0,0,0.5475803231707417,-2064.4665425105154,-1405.8065887617686) " id="svg_56"/>
   <g stroke="null" transform="matrix(0.5778279513720138,0,0,0.5475803231707417,-2064.4665425105154,-1405.8065887617686) " id="svg_57"/>
   <g stroke="null" transform="matrix(0.5778279513720138,0,0,0.5475803231707417,-2064.4665425105154,-1405.8065887617686) " id="svg_58"/>
   <g stroke="null" transform="matrix(0.5778279513720138,0,0,0.5475803231707417,-2064.4665425105154,-1405.8065887617686) " id="svg_59"/>
   <g stroke="null" transform="matrix(0.5778279513720138,0,0,0.5475803231707417,-2064.4665425105154,-1405.8065887617686) " id="svg_60"/>
   <g stroke="null" transform="matrix(0.5778279513720138,0,0,0.5475803231707417,-2064.4665425105154,-1405.8065887617686) " id="svg_61"/>
   <g stroke="null" transform="matrix(0.5778279513720138,0,0,0.5475803231707417,-2064.4665425105154,-1405.8065887617686) " id="svg_62"/>
   <g stroke="null" transform="matrix(0.5778279513720138,0,0,0.5475803231707417,-2064.4665425105154,-1405.8065887617686) " id="svg_63"/>
   <g stroke="null" transform="matrix(0.5778279513720138,0,0,0.5475803231707417,-2064.4665425105154,-1405.8065887617686) " id="svg_64"/>
   <g stroke="null" transform="matrix(0.5778279513720138,0,0,0.5475803231707417,-2064.4665425105154,-1405.8065887617686) " id="svg_65"/>
  </g>
 </g>
</svg>